<?xml version="1.0" encoding="utf-8"?>
<!-- Generator: Adobe Illustrator 16.0.0, SVG Export Plug-In . SVG Version: 6.00 Build 0)  -->
<!DOCTYPE svg PUBLIC "-//W3C//DTD SVG 1.1//EN" "http://www.w3.org/Graphics/SVG/1.1/DTD/svg11.dtd">
<svg version="1.1" id="Layer_1" xmlns="http://www.w3.org/2000/svg" xmlns:xlink="http://www.w3.org/1999/xlink" x="0px" y="0px"
	 width="361.804px" height="363.139px" viewBox="0 0 361.804 363.139" enable-background="new 0 0 361.804 363.139"
	 xml:space="preserve">
<g>
	<g>
		<path fill-rule="evenodd" clip-rule="evenodd" fill="#FD340B" d="M195.464,363.139c-1.447-1.325-2.575-2.275-3.611-3.317
			c-15.748-15.823-31.444-31.699-47.232-47.483c-17.556-17.552-35.221-34.994-52.789-52.534
			c-29.828-29.781-59.552-59.669-89.513-89.315c-3.4-3.364-2.829-4.923,0.203-7.941C56.136,109.178,109.655,55.713,163.107,2.181
			c2.609-2.613,4.01-3.124,6.882-0.175c13.25,13.608,26.685,27.043,40.287,40.302c2.938,2.863,2.507,4.297-0.144,6.937
			c-38.024,37.855-75.904,75.856-113.958,113.681c-2.957,2.939-3.044,4.459,0.016,7.259c5.897,5.392,11.563,11.068,16.964,16.957
			c2.772,3.023,4.348,3.117,7.334,0.11c31.936-32.162,64.093-64.103,95.987-96.306c3.459-3.494,5.116-3.327,8.407,0.068
			c12.987,13.401,26.221,26.565,39.577,39.599c2.77,2.704,2.478,4.029-0.104,6.595c-32.378,32.19-64.596,64.543-96.986,96.721
			c-2.828,2.809-3.334,4.308-0.167,7.287c8.25,7.759,16.249,15.803,24.044,24.021c2.893,3.048,4.418,3.354,7.62,0.13
			c37.566-37.843,75.372-75.446,112.923-113.304c3.509-3.538,5.152-3.208,8.4,0.142c13.105,13.517,26.474,26.782,39.904,39.979
			c2.367,2.327,2.206,3.533-0.052,5.775c-23.88,23.721-47.663,47.54-71.448,71.357c-30.021,30.063-60.02,60.146-90.015,90.233
			C197.524,360.609,196.61,361.811,195.464,363.139z"/>
	</g>
</g>
</svg>
