<?xml version="1.0" encoding="utf-8"?>
<!-- Generator: Adobe Illustrator 16.0.0, SVG Export Plug-In . SVG Version: 6.00 Build 0)  -->
<!DOCTYPE svg PUBLIC "-//W3C//DTD SVG 1.1//EN" "http://www.w3.org/Graphics/SVG/1.1/DTD/svg11.dtd">
<svg version="1.1" id="Layer_1" xmlns="http://www.w3.org/2000/svg" xmlns:xlink="http://www.w3.org/1999/xlink" x="0px" y="0px"
	 width="499.938px" height="499.938px" viewBox="0 0 499.938 499.938" enable-background="new 0 0 499.938 499.938"
	 xml:space="preserve">
<g>
	<g>
		<path fill="#FD340B" d="M294.756,94.559c15.883,15.893,31.277,31.298,46.607,46.638c-33.844,33.841-68.278,68.274-102.391,102.385
			c11.033,11.037,21.25,21.256,31.586,31.598c39.632-39.641,79.718-79.735,119.458-119.482
			c16.066,16.072,31.559,31.57,47.067,47.086c-55.43,55.15-111.28,110.72-166.654,165.816
			c-64.712-64.714-130.026-130.027-194.847-194.85C130.445,118.646,186.104,62.74,241.374,7.227
			c15.13,15.14,30.614,30.634,45.913,45.94c-39.458,39.456-79.483,79.479-119.17,119.165c8.599,8.506,16.554,16.376,24.576,24.311
			C226.382,162.945,260.738,128.583,294.756,94.559z"/>
		<path fill="#FD370F" d="M340.807,454.452c0,11.464,0.009,22.755-0.003,34.045c-0.006,6.307-0.293,6.646-6.432,6.604
			c-15.104-0.103-13.212,1.908-13.246-13.273c-0.057-25.661-0.02-51.323-0.013-76.985c0.002-6.382,0.37-6.821,6.873-6.72
			c12.147,0.19,24.307,0.282,36.436,0.899c4.062,0.205,8.194,1.498,12.036,2.971c9.742,3.731,15.394,10.785,15.872,21.459
			c0.453,10.103-4.021,17.604-12.487,22.844c-1.92,1.189-3.995,2.13-4.916,2.615c8.242,13.745,16.445,27.359,24.568,41.021
			c1.743,2.933,0.646,4.716-2.678,5.168c-0.491,0.066-1.017-0.07-1.496,0.025c-11.383,2.289-18.655-1.984-22.775-13.005
			c-2.126-5.688-6.204-10.614-8.909-16.127C359.061,456.665,351.727,453.019,340.807,454.452z M341.068,440.288
			c7.807-1.038,15.149-1.366,22.131-3.136c6.234-1.58,9.15-6.772,8.72-12.397c-0.413-5.369-3.918-9.507-10.34-10.498
			c-6.651-1.025-13.459-1.045-20.511-1.525C341.068,422.002,341.068,430.403,341.068,440.288z"/>
		<path fill="#FD360E" d="M301.9,445.811c0.385,15.771-3.379,30.075-15.955,40.687c-18.416,15.534-51.759,12.785-65.235-5.372
			c-8.382-11.293-9.77-24.523-9.095-37.994c0.279-5.575,1.22-11.306,2.993-16.586c7.208-21.471,27.521-32.872,51.121-29.165
			c21.728,3.413,34.498,17.672,36.146,40.456C302.066,440.48,301.9,443.151,301.9,445.811z M230.124,444.842
			c1.199,7.438,1.662,12.766,2.965,17.88c2.838,11.136,10.682,17.526,21.581,18.195c11.535,0.709,20.605-4.709,24.688-15.502
			c4.89-12.928,4.752-26.081-0.281-38.946c-3.676-9.391-11.223-13.597-21.078-13.952c-9.631-0.347-17.749,3.069-21.785,11.94
			C233.055,431.395,231.751,439.176,230.124,444.842z"/>
		<path fill="#FD350D" d="M24.428,413.117c0,8.33,0,16.093,0,24.659c1.605,0,3.187,0,4.768,0c11.659,0,23.319-0.008,34.979,0.003
			c6.368,0.006,6.647,0.308,6.661,6.888c0.001,0.667-0.06,1.34,0.01,1.998c0.477,4.479-1.383,6.277-6,6.193
			c-11.656-0.215-23.318-0.071-34.978-0.071c-1.656,0-3.313,0-5.335,0c0,8.979,0,17.707,0,27.148c1.656,0,3.41,0,5.164,0
			c12.326,0,24.654,0.133,36.977-0.071c4.287-0.07,6.267,1.353,5.885,5.733c-0.144,1.653-0.053,3.329-0.021,4.995
			c0.058,3.077-1.307,4.546-4.503,4.537c-19.655-0.051-39.31-0.061-58.964,0.002c-4.219,0.013-4.262-2.645-4.258-5.703
			c0.033-28.48,0.019-56.964,0.019-85.446c0-0.333,0.02-0.668-0.002-0.999c-0.214-3.331,1.274-4.902,4.68-4.896
			c19.488,0.04,38.977,0.033,58.464,0.004c3.131-0.004,4.605,1.465,4.559,4.551c-0.005,0.333-0.004,0.667,0.004,1
			c0.228,9.475,0.228,9.475-9.037,9.475C50.68,413.117,37.861,413.117,24.428,413.117z"/>
		<path fill="#FD370F" d="M439.795,461.95c0,9.568-0.111,18.539,0.052,27.504c0.072,3.957-1.197,5.97-5.438,5.698
			c-3.15-0.201-6.326-0.122-9.485-0.019c-3.355,0.111-4.853-1.35-4.848-4.74c0.039-29.134,0.033-58.269,0.005-87.403
			c-0.003-2.956,1.038-4.969,4.236-4.858c15.437,0.532,30.882,0.955,46.295,1.898c3.663,0.225,7.398,1.927,10.786,3.59
			c19.25,9.451,21.9,34.429,5.116,47.875c-9.363,7.503-20.425,10.098-32.145,10.434C449.735,462.063,445.094,461.95,439.795,461.95z
			 M440.06,412.392c0,12.099,0,22.989,0,35.188c8.87-0.982,17.521-1.243,25.832-3.064c7.881-1.728,11.65-7.821,11.487-15.465
			c-0.15-7.02-4.006-12.41-11.914-13.976C457.266,413.45,448.787,413.25,440.06,412.392z"/>
		<path fill="#FD370F" d="M194.824,402.375c0,3.749,0.077,7.407-0.021,11.061c-0.11,4.13-1.689,4.856-5.74,3.846
			c-6.891-1.726-13.844-3.948-20.854-4.3c-20.667-1.036-32.953,10.445-33.951,31.105c-0.223,4.604,0.195,9.359,1.129,13.876
			c3.614,17.451,16.519,23.596,34.096,22.562c6.541-0.386,13.014-2.41,19.446-3.983c4.328-1.06,5.758-0.225,5.895,4.275
			c0.336,10.997,0.354,11.074-10.379,13.446c-13.342,2.948-26.744,3.417-39.979-0.403c-16.112-4.654-26.724-15.146-29.33-31.814
			c-1.411-9.021-1.489-18.641-0.022-27.64c2.758-16.917,13.294-28.221,29.372-34.174
			C158.473,395.051,180.319,395.954,194.824,402.375z"/>
	</g>
</g>
</svg>
